#!OML:ASF H:\Terrain\Patient Classification 1\Terrain2\Thursday\justin.ASF
:FULLY-SPECIFIED
:DEGREES
1161
root 19.2278 24.2928 14.6719 180.959 13.1861 -177.059
lowerback 5.19882 1.59098 2.4184
upperback 2.0329 2.43813 2.66179
thorax -0.840152 1.28996 1.23517
lowerneck -12.4375 -2.16067 -7.32822
upperneck 39.9092 4.28017 -0.0824914
head 16.385 2.27567 2.47847
rclavicle 6.27663e-014 8.74653e-015
rhumerus -31.2461 -8.78163 -80.5388
rradius 30.6178
rwrist -10.7585
rhand -19.4891 10.2194
rfingers 7.12502
rthumb 6.833 -19.6503
lclavicle 6.27663e-014 8.74653e-015
lhumerus -33.9312 5.70367 83.0419
lradius 32.7754
lwrist 2.05191
lhand -12.3972 22.8581
lfingers 7.12502
lthumb 13.6742 52.3889
rfemur -1.2966 -1.31492 18.3433
rtibia 54.1228
rfoot -3.45016 -4.67958
rtoes 7.15187
lfemur -15.034 5.13676 -18.2698
ltibia 19.4012
lfoot -0.580518 -6.81568
ltoes -2.88891
1162
root 19.2212 24.3027 14.6151 181.019 12.9259 -177.182
lowerback 5.19628 1.36963 2.10792
upperback 1.96761 2.12781 2.71857
thorax -0.917669 1.132 1.48378
lowerneck -12.3693 -2.07498 -7.37016
upperneck 40.0656 4.50455 -0.114465
head 16.4451 2.36729 2.51735
rclavicle 2.9271e-014 -1.98785e-014
rhumerus -31.0956 -8.78468 -80.4823
rradius 30.9008
rwrist -10.3467
rhand -19.4865 10.4058
rfingers 7.12502
rthumb 6.83554 -19.4639
lclavicle 2.9271e-014 -1.98785e-014
lhumerus -33.8124 5.8118 82.834
lradius 32.8844
lwrist 2.24076
lhand -12.6115 23.07
lfingers 7.12502
lthumb 13.4676 52.6146
rfemur -2.26792 -1.8711 18.3297
rtibia 54.9569
rfoot -4.96695 -5.65447
rtoes 0.2781
lfemur -14.8793 6.16286 -18.578
ltibia 19.1082
lfoot -0.484656 -8.13459
ltoes -1.88008
1163
root 19.2161 24.3167 14.5528 181.036 12.7833 -176.915
lowerback 5.22371 1.17215 2.24599
upperback 1.96174 1.88143 2.81488
thorax -0.935206 1.01205 1.51928
lowerneck -12.0887 -1.96122 -7.27568
upperneck 39.9505 4.69759 -0.307508
head 16.3157 2.44628 2.43558
rclavicle -8.64713e-015 -5.56597e-015
rhumerus -31.051 -8.52976 -80.6844
rradius 31.5248
rwrist -10.5597
rhand -19.7842 10.5146
rfingers 7.12502
rthumb 6.54816 -19.3642
lclavicle -8.64713e-015 -5.56597e-015
lhumerus -33.6161 5.92986 82.5227
lradius 32.8877
lwrist 2.24936
lhand -12.9603 23.8775
lfingers 7.12502
lthumb 13.1314 53.4441
rfemur -3.07964 -2.36445 18.743
rtibia 55.6216
rfoot -6.09165 -6.32789
rtoes 4.0296
lfemur -14.5865 7.02061 -18.4152
ltibia 18.8894
lfoot -0.619042 -9.0389
ltoes -0.516899
1164
root 19.2113 24.3242 14.4881 180.878 12.6654 -176.504
lowerback 5.52717 1.00948 2.55047
upperback 2.04559 1.71151 2.94501
thorax -1.01177 0.935519 1.48725
lowerneck -12.0629 -1.91075 -7.17958
upperneck 39.8427 4.77945 -0.500673
head 16.2588 2.46277 2.33995
rclavicle 6.95746e-015 1.59028e-015
rhumerus -30.857 -8.4099 -80.8521
rradius 31.9717
rwrist -10.6887
rhand -19.9739 10.5076
rfingers 7.12502
rthumb 6.36497 -19.3767
lclavicle 6.95746e-015 1.59028e-015
lhumerus -33.3085 5.80992 82.4011
lradius 32.881
lwrist 2.48267
lhand -13.9095 23.9253
lfingers 7.12502
lthumb 12.2163 53.5485
rfemur -3.59063 -2.63562 19.3629
rtibia 56.1325
rfoot -6.8533 -6.69205
rtoes 5.65001
lfemur -14.0133 7.15198 -18.0108
ltibia 18.7175
lfoot -0.737211 -9.26789
ltoes 0.174257
1165
root 19.2046 24.3267 14.4292 180.811 12.4492 -176.631
lowerback 5.76 0.819928 2.27887
upperback 2.00359 1.45953 3.01967
thorax -1.19126 0.808724 1.72729
lowerneck -12.1074 -1.85099 -7.23457
upperneck 39.9149 4.96391 -0.613645
head 16.3083 2.51515 2.33548
rclavicle -3.27995e-015 2.06736e-014
rhumerus -30.6377 -8.11641 -80.904
rradius 32.2801
rwrist -10.5656
rhand -19.8538 10.1219
rfingers 7.12502
rthumb 6.48092 -19.7589
lclavicle -3.27995e-015 2.06736e-014
lhumerus -33.1667 5.92092 82.2693
lradius 32.969
lwrist 2.10268
lhand -13.4418 25.221
lfingers 7.12502
lthumb 12.6673 54.8169
rfemur -4.32432 -2.91774 19.3799
rtibia 56.535
rfoot -7.64118 -6.8026
rtoes 7.0346
lfemur -13.6981 6.77571 -18.1919
ltibia 18.5957
lfoot -0.691695 -9.13102
ltoes 0.985308
1166
root 19.1958 24.333 14.3717 180.828 12.1992 -177.258
lowerback 5.75864 0.675545 1.61389
upperback 1.92188 1.21097 2.88263
thorax -1.28105 0.675378 1.97502
lowerneck -12.2649 -1.79239 -7.16315
upperneck 40.203 5.15818 -0.637262
head 16.4982 2.6048 2.3649
rclavicle 1.82882e-014 4.77083e-015
rhumerus -30.5404 -7.92365 -81.0142
rradius 32.7982
rwrist -10.451
rhand -19.6751 9.64358
rfingers 7.12502
rthumb 6.6535 -20.2319
lclavicle 1.82882e-014 4.77083e-015
lhumerus -32.949 6.34544 81.8351
lradius 32.9189
lwrist 0.969114
lhand -11.9446 26.4679
lfingers 7.12502
lthumb 14.1104 55.9688
rfemur -5.27112 -3.39739 18.7831
rtibia 56.8271
rfoot -8.16868 -6.56287
rtoes 8.93138
lfemur -13.6392 6.13225 -18.9378
ltibia 18.5798
lfoot -0.780563 -8.64715
ltoes 2.01443
1167
root 19.1894 24.3362 14.3153 180.871 11.8253 -177.329
lowerback 5.69914 0.565304 1.62692
upperback 2.02124 1.057 2.76856
thorax -1.13979 0.598678 1.86206
lowerneck -12.6159 -1.82861 -6.99778
upperneck 40.3884 5.08102 -0.583471
head 16.6874 2.58625 2.36296
rclavicle 3.55825e-014 3.89618e-014
rhumerus -30.2954 -8.23688 -81.1633
rradius 33.4246
rwrist -10.3522
rhand -19.4145 9.41778
rfingers 7.12502
rthumb 6.90505 -20.4496
lclavicle 3.55825e-014 3.89618e-014
lhumerus -32.2695 6.24369 81.5469
lradius 32.7301
lwrist 0.870254
lhand -12.1284 25.0786
lfingers 7.12502
lthumb 13.9332 54.5918
rfemur -6.02215 -3.9915 18.8464
rtibia 56.9298
rfoot -8.64041 -6.0915
rtoes 10.1135
lfemur -13.5444 5.47969 -19.0693
ltibia 18.6783
lfoot -1.02217 -8.34253
ltoes 1.9404
1168
root 19.1871 24.3379 14.2641 181.01 11.5311 -176.893
lowerback 5.69848 0.427998 2.00628
upperback 2.06008 0.907716 2.86817
thorax -1.09249 0.530214 1.76194
lowerneck -12.7418 -1.8821 -6.92723
upperneck 40.49 5.02205 -0.624673
head 16.7805 2.55972 2.32991
rclavicle -6.16232e-015 1.59028e-015
rhumerus -30.183 -8.11714 -81.3389
rradius 34.1136
rwrist -10.3094
rhand -19.6247 9.13588
rfingers 7.12502
rthumb 6.70208 -20.7381
lclavicle -6.16232e-015 1.59028e-015
lhumerus -31.7945 5.90742 81.481
lradius 32.7432
lwrist 1.54397
lhand -13.2923 23.8346
lfingers 7.12502
lthumb 12.8115 53.4215
rfemur -6.75656 -4.34721 19.5769
rtibia 56.8472
rfoot -9.3091 -5.66025
rtoes 10.7963
lfemur -13.5748 5.25175 -18.6428
ltibia 18.8949
lfoot -1.01018 -8.47402
ltoes 1.13604
1169
root 19.1851 24.3358 14.2118 181.097 11.4216 -176.719
lowerback 5.77481 0.267721 1.98246
upperback 1.95844 0.705676 3.01372
thorax -1.23835 0.430016 1.93765
lowerneck -12.5075 -1.84255 -7.08062
upperneck 40.519 5.16078 -0.647914
head 16.7341 2.60471 2.36742
rclavicle 3.47873e-015 -8.74653e-015
rhumerus -30.3078 -7.48641 -81.4752
rradius 34.6438
rwrist -10.6619
rhand -20.2191 9.70962
rfingers 7.12502
rthumb 6.12827 -20.1817
lclavicle 3.47873e-015 -8.74653e-015
lhumerus -31.779 5.80821 81.4395
lradius 32.9425
lwrist 2.23107
lhand -14.3369 23.9587
lfingers 7.12502
lthumb 11.8042 53.606
rfemur -7.48225 -4.50061 20.0312
rtibia 56.6137
rfoot -10.1892 -5.22536
rtoes 9.61068
lfemur -13.6857 5.53294 -18.526
ltibia 19.2262
lfoot -0.988939 -8.85299
ltoes 0.908019
1170
root 19.1812 24.3274 14.1539 181.036 11.3398 -176.968
lowerback 5.79734 0.128054 1.58056
upperback 1.95547 0.495834 3.04818
thorax -1.25306 0.323526 2.21322
lowerneck -12.3853 -1.76473 -7.20918
upperneck 40.4267 5.31458 -0.717744
head 16.6504 2.6408 2.37626
rclavicle 7.45443e-015 -2.38542e-014
rhumerus -30.2593 -7.18022 -81.4887
rradius 35.1195
rwrist -10.8205
rhand -19.9789 10.111
rfingers 7.12502
rthumb 6.36016 -19.7735
lclavicle 7.45443e-015 -2.38542e-014
lhumerus -31.7344 5.4681 81.5765
lradius 33.2311
lwrist 3.74418
lhand -16.2457 23.5641
lfingers 7.12502
lthumb 9.96314 53.3083
rfemur -8.07861 -4.6188 19.9864
rtibia 56.272
rfoot -11.2241 -4.67877
rtoes 8.12543
lfemur -13.679 5.70301 -18.8732
ltibia 19.6387
lfoot -1.67936 -9.0524
ltoes 0.712217
1171
root 19.1789 24.3252 14.0986 180.998 11.1996 -177.164
lowerback 5.75646 0.0398604 1.28657
upperback 2.05232 0.356429 3.0163
thorax -1.12808 0.25321 2.35539
lowerneck -12.5111 -1.77105 -7.075
upperneck 40.3427 5.30006 -0.915322
head 16.6489 2.61338 2.25925
rclavicle -3.57812e-015 -4.37326e-014
rhumerus -30.1281 -6.99827 -81.5977
rradius 35.8571
rwrist -11.1335
rhand -19.243 10.0888
rfingers 7.12502
rthumb 7.07063 -19.7731
lclavicle -3.57812e-015 -4.37326e-014
lhumerus -31.3952 5.1286 81.6133
lradius 33.4539
lwrist 4.84124
lhand -17.0886 23.0676
lfingers 7.12502
lthumb 9.14989 52.8491
rfemur -8.69718 -4.72683 20.0113
rtibia 55.8373
rfoot -12.1474 -4.0889
rtoes 8.51486
lfemur -13.7041 5.66301 -19.1473
ltibia 20.1031
lfoot -2.48598 -9.09981
ltoes 0.129247
1172
root 19.1797 24.3224 14.052 181.043 10.943 -176.921
lowerback 5.87696 -0.0771989 1.41823
upperback 2.0676 0.219969 3.07283
thorax -1.17502 0.188451 2.34884
lowerneck -12.5633 -1.79098 -6.91805
upperneck 40.2984 5.23657 -1.02575
head 16.6469 2.58749 2.16956
rclavicle -3.3197e-014 -3.10104e-014
rhumerus -30.2094 -6.54547 -81.8431
rradius 36.6408
rwrist -12.6545
rhand -19.3029 11.1632
rfingers 7.12502
rthumb 7.01277 -18.7007
lclavicle -3.3197e-014 -3.10104e-014
lhumerus -31.0307 5.21605 81.3546
lradius 33.5075
lwrist 4.65601
lhand -16.1725 22.3131
lfingers 7.12502
lthumb 10.0337 52.0539
rfemur -9.31226 -5.02652 20.5352
rtibia 55.2897
rfoot -13.0211 -3.45432
rtoes 9.04866
lfemur -13.7405 5.32362 -18.9089
ltibia 20.4918
lfoot -2.86897 -8.98123
ltoes -0.323434
1173
root 19.181 24.3111 14.0101 181.079 10.6723 -176.68
lowerback 6.11976 -0.254893 1.49165
upperback 1.98049 0.00839685 3.19997
thorax -1.39343 0.0858719 2.45449
lowerneck -12.5259 -1.71339 -6.90057
upperneck 40.3488 5.37006 -1.02157
head 16.6604 2.64915 2.1927
rclavicle -3.47873e-015 -2.22639e-014
rhumerus -30.3982 -5.93203 -82.0329
rradius 37.3864
rwrist -14.329
rhand -19.7511 11.8436
rfingers 7.12502
rthumb 6.58009 -18.0342
lclavicle -3.47873e-015 -2.22639e-014
lhumerus -30.9472 5.61634 81.0749
lradius 33.567
lwrist 4.26593
lhand -16.0031 20.7507
lfingers 7.12502
lthumb 10.1972 50.4836
rfemur -9.89944 -5.3235 21.1041
rtibia 54.6288
rfoot -13.8682 -2.94803
rtoes 8.61979
lfemur -13.7873 5.14009 -18.6695
ltibia 20.8621
lfoot -3.22324 -9.10871
ltoes -1.06361
